HIERARCHY
ROOT Hips
{
	OFFSET 0.000000 0.000000 0.000000
	CHANNELS 6 Xposition Yposition Zposition Zrotation Yrotation Xrotation 
	JOINT LHipJoint
	{
		OFFSET 0.000000 0.000000 0.000000
		CHANNELS 3 Zrotation Yrotation Xrotation
		JOINT LeftUpLeg
		{
			OFFSET 1.363060 -1.794630 0.839290
			CHANNELS 3 Zrotation Yrotation Xrotation
			JOINT LeftLeg
			{
				OFFSET 2.448110 -6.726130 0.000000
				CHANNELS 3 Zrotation Yrotation Xrotation
				JOINT LeftFoot
				{
					OFFSET 2.562200 -7.039590 0.000000
					CHANNELS 3 Zrotation Yrotation Xrotation
					JOINT LeftToeBase
					{
						OFFSET 0.157640 -0.433110 2.322550
						CHANNELS 3 Zrotation Yrotation Xrotation
						End Site
						{
							OFFSET 0.000000 0.000000 0.000000
						}
					}
				}
			}
		}
	}
	JOINT RHipJoint
	{
		OFFSET 0.000000 0.000000 0.000000
		CHANNELS 3 Zrotation Yrotation Xrotation
		JOINT RightUpLeg
		{
			OFFSET -1.305520 -1.794630 0.839290
			CHANNELS 3 Zrotation Yrotation Xrotation
			JOINT RightLeg
			{
				OFFSET -2.542530 -6.985550 0.000000
				CHANNELS 3 Zrotation Yrotation Xrotation
				JOINT RightFoot
				{
					OFFSET -2.568260 -7.056230 0.000000
					CHANNELS 3 Zrotation Yrotation Xrotation
					JOINT RightToeBase
					{
						OFFSET -0.164730 -0.452590 2.363150
						CHANNELS 3 Zrotation Yrotation Xrotation
						End Site
						{
							OFFSET 0.000000 0.000000 0.000000
						}
					}
				}
			}
		}
	}
}
MOTION
Frames: 22
Frame Time: 0.008333
0.618458 17.108157 1.643027 16.406619 -26.264653 -2.670705 -8.720579 0.655424 7.586845 -16.623243 -24.916894 -11.518630 -4.124394 -0.706218 1.012718 -1.003185 -6.911200 11.746911 -1.526900 0.000000 -45.329199 11.655802 -0.558684 -5.656503 -19.000237 -40.117640 10.626236 0.407442 0.024130 0.822207 -3.139612 -20.445650 8.564915 -6.544100 -0.000000 -71.305300
0.601477 17.109497 1.648090 16.655815 -25.540512 -2.663520 -8.738168 0.560996 7.585963 -16.895323 -25.135730 -11.296605 -4.189289 -0.733192 0.710197 -1.040192 -7.230097 12.119606 -1.651699 0.000000 -45.326100 11.642550 -0.573832 -5.664166 -19.328867 -40.023630 10.869867 0.361914 -0.029095 0.984107 -3.155457 -20.466274 8.764190 -6.606301 0.000000 -71.646600
0.579960 17.113245 1.654251 16.814036 -24.863408 -2.606669 -8.716856 0.498423 7.613140 -17.087178 -25.336829 -11.109495 -4.251791 -0.762610 0.385513 -1.079171 -7.576531 12.521671 -1.792000 -0.000000 -45.367101 11.669639 -0.604141 -5.648784 -19.509256 -39.961919 11.053217 0.315982 -0.061231 1.046916 -3.196391 -20.678155 8.972566 -6.744301 0.000000 -71.858100
0.555314 17.118528 1.660903 16.886760 -24.188531 -2.515104 -8.664084 0.459146 7.663347 -17.210133 -25.549537 -10.934994 -4.311617 -0.792040 0.050092 -1.119154 -7.948416 12.945650 -1.947600 -0.000000 -45.448600 11.725258 -0.642257 -5.633261 -19.601263 -40.000481 11.217139 0.275544 -0.077229 1.044588 -3.253090 -21.027155 9.192229 -6.939800 0.000000 -71.973900
0.528834 17.125015 1.667685 16.884006 -23.493258 -2.396491 -8.591702 0.435021 7.732521 -17.268547 -25.795570 -10.764107 -4.366408 -0.819226 -0.288991 -1.158227 -8.334183 13.385419 -2.115400 0.000000 -45.550000 11.794118 -0.682713 -5.633493 -19.640362 -40.173920 11.381866 0.245435 -0.081590 1.003344 -3.317521 -21.464883 9.430423 -7.178200 0.000000 -72.026401
0.501819 17.132672 1.674729 16.818370 -22.788156 -2.251628 -8.510814 0.423889 7.819758 -17.261620 -26.088699 -10.603820 -4.411673 -0.841723 -0.630839 -1.193231 -8.712407 13.832821 -2.289400 -0.000000 -45.650700 11.861595 -0.717424 -5.658370 -19.645437 -40.489648 11.546334 0.229421 -0.075947 0.943723 -3.381048 -21.941686 9.695415 -7.445100 -0.000000 -72.047200
0.475608 17.141572 1.682191 16.701778 -22.093522 -2.079344 -8.432014 0.423893 7.923063 -17.187541 -26.434073 -10.466103 -4.443223 -0.857840 -0.970203 -1.221263 -9.057089 14.274070 -2.459800 -0.000000 -45.712900 11.915410 -0.741702 -5.711436 -19.626348 -40.936925 11.700650 0.230567 -0.062469 0.885939 -3.435327 -22.405703 9.990607 -7.722700 -0.000001 -72.051900
0.451730 17.152192 1.690002 16.539939 -21.435338 -1.878184 -8.368332 0.431166 8.037038 -17.039083 -26.821257 -10.361508 -4.457188 -0.866795 -1.301844 -1.240201 -9.341911 14.702599 -2.616300 -0.000000 -45.725800 11.945035 -0.759398 -5.787801 -19.565130 -41.465161 11.826503 0.247816 -0.045240 0.840710 -3.477931 -22.833977 10.323104 -8.004999 0.000000 -72.068101
0.431343 17.164621 1.698232 16.333527 -20.840190 -1.647806 -8.323246 0.445022 8.157294 -16.813786 -27.236143 -10.299091 -4.452798 -0.869418 -1.616041 -1.249193 -9.541141 15.104283 -2.746000 0.000000 -45.674700 11.950686 -0.776272 -5.878421 -19.449734 -42.027416 11.903682 0.280293 -0.027743 0.821788 -3.505098 -23.193319 10.689575 -8.277100 0.000000 -72.111800
0.414905 17.178546 1.707328 16.079265 -20.344755 -1.390724 -8.288250 0.470882 8.285225 -16.514126 -27.661310 -10.288046 -4.431758 -0.867861 -1.906683 -1.248442 -9.632157 15.462207 -2.836000 0.000000 -45.565000 11.943934 -0.797580 -5.967728 -19.272603 -42.580959 11.907781 0.326778 -0.010828 0.841206 -3.512239 -23.446592 11.078327 -8.518000 0.000001 -72.205800
0.402432 17.194058 1.717488 15.778596 -19.998455 -1.108768 -8.259116 0.513958 8.420639 -16.138500 -28.069436 -10.342203 -4.394019 -0.863322 -2.170024 -1.237947 -9.599429 15.766274 -2.876699 0.000000 -45.404100 11.933250 -0.827671 -6.037623 -19.004861 -43.056507 11.805859 0.382523 0.005179 0.901225 -3.500589 -23.588423 11.477847 -8.720100 -0.000000 -72.359400
0.394062 17.211398 1.728061 15.450611 -19.858641 -0.808301 -8.244750 0.574738 8.554382 -15.690265 -28.423045 -10.475206 -4.336581 -0.853970 -2.395014 -1.216558 -9.438509 16.008414 -2.864199 0.000000 -45.195500 11.914453 -0.864111 -6.077423 -18.614607 -43.367384 11.571721 0.439044 0.018956 1.000460 -3.476334 -23.638682 11.876588 -8.886700 0.000000 -72.557000
0.389938 17.230185 1.738017 15.114590 -19.959463 -0.501072 -8.252914 0.647500 8.671095 -15.186081 -28.695638 -10.677086 -4.259471 -0.839568 -2.578334 -1.183631 -9.144596 16.185432 -2.794800 -0.000001 -44.980700 11.883054 -0.901436 -6.087138 -18.103636 -43.458456 11.202615 0.489643 0.027348 1.145464 -3.444260 -23.605877 12.252671 -9.012199 0.000000 -72.787300
0.389380 17.249642 1.746729 14.785847 -20.312123 -0.193270 -8.283011 0.727180 8.759145 -14.642836 -28.868110 -10.941900 -4.165968 -0.821005 -2.706473 -1.140358 -8.728148 16.289129 -2.670000 -0.000000 -44.793600 11.842370 -0.936430 -6.066385 -17.484530 -43.305776 10.700405 0.530307 0.028440 1.341394 -3.408350 -23.499845 12.586050 -9.092300 0.000001 -73.067600
0.391409 17.269201 1.753798 14.472803 -20.917125 0.109880 -8.330494 0.809380 8.810687 -14.075048 -28.929759 -11.256642 -4.060320 -0.800227 -2.777265 -1.088304 -8.202685 16.320932 -2.494400 -0.000000 -44.678900 11.797922 -0.966964 -6.015055 -16.775277 -42.902966 10.073331 0.558934 0.021362 1.593657 -3.371792 -23.329982 12.853306 -9.121501 0.000000 -73.355600
0.395201 17.288546 1.758923 14.174449 -21.764029 0.407661 -8.390315 0.890807 8.822388 -13.489962 -28.876048 -11.615074 -3.946057 -0.778538 -2.784812 -1.029369 -7.590683 16.281745 -2.277100 0.000000 -44.652401 11.754588 -0.992835 -5.932325 -15.988926 -42.255689 9.331903 0.574070 0.006779 1.897150 -3.339366 -23.125804 13.049076 -9.111299 0.000000 -73.680400
0.399507 17.307330 1.761757 13.899577 -22.837724 0.691735 -8.458087 0.968634 8.790096 -12.904124 -28.701239 -11.996707 -3.827314 -0.757274 -2.733722 -0.965370 -6.916669 16.182888 -2.029700 0.000000 -44.752100 11.715236 -1.010641 -5.822409 -15.159811 -41.392495 8.499491 0.576740 -0.014525 2.253665 -3.312043 -22.893096 13.153869 -9.057400 0.000000 -73.970600
0.403489 17.325425 1.762191 13.649063 -24.114901 0.959301 -8.530301 1.041927 8.715334 -12.327028 -28.404644 -12.394212 -3.707052 -0.736722 -2.620710 -0.898444 -6.211628 16.030816 -1.765900 -0.000000 -44.994299 11.681306 -1.019493 -5.688412 -14.312103 -40.353694 7.594825 0.569403 -0.040415 2.656385 -3.290875 -22.646789 13.162696 -8.965700 -0.000000 -74.185400
0.406479 17.342801 1.760267 13.419986 -25.562307 1.205441 -8.601508 1.111053 8.607458 -11.757787 -28.013702 -12.787946 -3.587194 -0.717995 -2.460672 -0.829100 -5.482805 15.834043 -1.490900 0.000000 -45.313700 11.654592 -1.020757 -5.535586 -13.469603 -39.195667 6.646970 0.553944 -0.068305 3.082936 -3.277485 -22.416429 13.109381 -8.861900 0.000000 -74.434400
0.408003 17.359299 1.756097 13.218829 -27.153522 1.421529 -8.671085 1.176986 8.469306 -11.214709 -27.524726 -13.167380 -3.470076 -0.700421 -2.252721 -0.759159 -4.758891 15.600992 -1.217800 0.000001 -45.738000 11.633664 -1.011939 -5.371940 -12.664828 -37.982054 5.677033 0.535899 -0.095996 3.528388 -3.267603 -22.184003 12.980285 -8.733300 0.000001 -74.612600
0.408055 17.374907 1.750144 13.043457 -28.857856 1.603357 -8.737195 1.241833 8.310470 -10.703255 -26.954128 -13.522821 -3.356650 -0.683864 -2.003615 -0.689136 -4.048506 15.336747 -0.951201 0.000000 -46.239301 11.618005 -0.994327 -5.203711 -11.913979 -36.775074 4.703135 0.519492 -0.120950 3.973734 -3.258888 -21.950678 12.793254 -8.586800 -0.000000 -74.742100
0.406833 17.389592 1.742827 12.890715 -30.641945 1.743297 -8.797377 1.307085 8.143049 -10.222736 -26.338851 -13.832362 -3.246932 -0.668966 -1.734144 -0.617586 -3.335645 15.045379 -0.686800 0.000000 -46.735100 11.606938 -0.969796 -5.040780 -11.232827 -35.643723 3.750013 0.509058 -0.141533 4.396477 -3.247358 -21.708621 12.578531 -8.428900 0.000001 -74.851000
